<?xml version="1.0" standalone="no"?>
<!DOCTYPE svg PUBLIC "-//W3C//DTD SVG 20010904//EN"
 "http://www.w3.org/TR/2001/REC-SVG-20010904/DTD/svg10.dtd">
<svg version="1.0" xmlns="http://www.w3.org/2000/svg"
 width="2545.000000pt" height="2565.000000pt" viewBox="0 0 2545.000000 2565.000000"
 preserveAspectRatio="xMidYMid meet">

<g transform="translate(0.000000,2565.000000) scale(0.100000,-0.100000)"
fill="#000000" stroke="none">
<path d="M14 25623 c9 -35 3061 -12196 4130 -16453 442 -1763 1140 -4544 1551
-6180 411 -1636 749 -2977 751 -2979 3 -3 39 29 82 71 42 41 4278 4151 9412
9133 5134 4982 9375 9097 9423 9144 l88 87 -6383 1807 c-3511 994 -9229 2612
-12708 3597 -3479 985 -6331 1793 -6339 1795 -10 4 -12 -1 -7 -22z m3376
-1237 c1521 -430 2765 -785 2765 -789 0 -13 -4279 -4157 -4285 -4150 -6 7
-1451 5760 -1450 5774 0 4 46 -7 103 -23 56 -16 1346 -382 2867 -812z m6135
-1736 c1557 -441 2841 -804 2854 -808 22 -7 -170 -197 -2119 -2087 -1178
-1144 -2145 -2080 -2148 -2080 -5 0 -1452 5750 -1452 5773 0 8 7 11 18 8 9 -3
1290 -366 2847 -806z m-2425 -2169 c397 -1580 719 -2876 716 -2878 -5 -5
-5699 1603 -5724 1616 -8 5 717 716 2130 2088 1633 1585 2145 2076 2150 2064
4 -9 332 -1309 728 -2890z m8677 399 c1556 -440 2836 -804 2845 -808 14 -5
-421 -433 -2123 -2084 -1177 -1143 -2144 -2078 -2147 -2078 -6 0 -1453 5754
-1452 5774 0 11 -313 98 2877 -804z m-2437 -2169 c397 -1580 719 -2875 717
-2877 -2 -2 -1283 359 -2848 802 -1564 442 -2854 807 -2867 811 -13 3 -22 9
-20 13 2 4 966 942 2143 2084 1727 1676 2141 2073 2147 2059 4 -10 332 -1311
728 -2892z m8673 403 c1571 -445 2857 -812 2857 -816 0 -7 -4266 -4151 -4278
-4156 -4 -1 -87 316 -184 705 -98 390 -425 1693 -727 2896 -302 1204 -544
2187 -538 2184 7 -2 1298 -368 2870 -813z m-2439 -2153 c400 -1591 725 -2895
724 -2896 -7 -5 -5730 1621 -5731 1628 -2 7 4274 4166 4280 4163 0 -1 328
-1303 727 -2895z m-14699 1163 c1568 -443 2853 -809 2856 -813 8 -7 -4267
-4157 -4278 -4154 -5 1 -334 1303 -734 2892 -547 2183 -721 2890 -710 2886 9
-2 1299 -367 2866 -811z m6230 -1764 c1557 -440 2841 -804 2853 -808 21 -7
-191 -216 -2115 -2083 -1176 -1141 -2142 -2076 -2148 -2078 -9 -2 -1455 5731
-1455 5767 0 8 7 11 18 8 9 -3 1291 -366 2847 -806z m-2430 -2155 c399 -1588
723 -2890 721 -2892 -5 -5 -5700 1604 -5725 1617 -9 5 641 642 2130 2088 1179
1144 2145 2079 2147 2078 1 -2 329 -1303 727 -2891z m8700 380 c1546 -437
2817 -798 2826 -802 13 -6 -459 -469 -2121 -2083 -1177 -1141 -2143 -2076
-2147 -2077 -5 -2 -334 1294 -732 2879 -398 1586 -726 2888 -728 2895 -3 8 9
7 44 -3 26 -7 1313 -371 2858 -809z m-2460 -2150 c399 -1589 724 -2890 722
-2891 -6 -6 -5737 1621 -5735 1628 5 11 4281 4159 4284 4155 2 -2 330 -1303
729 -2892z m-8462 -600 c1571 -445 2857 -812 2857 -817 0 -13 -4275 -4157
-4282 -4150 -3 4 -279 1094 -612 2422 -333 1329 -659 2628 -725 2889 -70 274
-115 471 -108 468 7 -2 1298 -368 2870 -812z m6257 -1771 c1565 -443 2846
-806 2847 -808 1 -1 -964 -939 -2144 -2085 l-2147 -2083 -368 1469 c-203 807
-530 2111 -727 2896 l-359 1429 27 -7 c14 -3 1306 -369 2871 -811z m-2456
-2149 c399 -1589 724 -2891 722 -2893 -3 -2 -5496 1548 -5719 1614 -10 3 -17
9 -15 13 4 10 4281 4161 4285 4158 1 -1 328 -1303 727 -2892z m-2233 -2365
c1575 -446 2868 -812 2872 -813 8 -2 -4266 -4157 -4282 -4165 -3 -1 -102 379
-218 845 -117 467 -444 1769 -727 2896 -282 1126 -513 2047 -511 2047 1 0
1291 -365 2866 -810z"/>
</g>
</svg>
